<mxfile host="app.diagrams.net" agent="Mozilla/5.0 (Windows NT 10.0; Win64; x64) AppleWebKit/537.36 (KHTML, like Gecko) Chrome/137.0.0.0 Safari/537.36" version="27.1.1">
  <diagram name="第 1 页" id="4pDcwZSjE4_VfgWeyjtd">
    <mxGraphModel dx="1489" dy="803" grid="0" gridSize="10" guides="1" tooltips="1" connect="1" arrows="1" fold="1" page="1" pageScale="1" pageWidth="827" pageHeight="1169" math="0" shadow="0">
      <root>
        <mxCell id="0" />
        <mxCell id="1" parent="0" />
        <mxCell id="8OgssNxIvELzxUCm_H0C-6" value="" style="rounded=0;whiteSpace=wrap;html=1;" parent="1" vertex="1">
          <mxGeometry x="56" y="169" width="742" height="755" as="geometry" />
        </mxCell>
        <mxCell id="8OgssNxIvELzxUCm_H0C-7" value="" style="endArrow=none;html=1;rounded=0;exitX=0.003;exitY=0.123;exitDx=0;exitDy=0;exitPerimeter=0;" parent="1" edge="1">
          <mxGeometry width="50" height="50" relative="1" as="geometry">
            <mxPoint x="53.116000000000106" y="244.005" as="sourcePoint" />
            <mxPoint x="795.89" y="237.14" as="targetPoint" />
          </mxGeometry>
        </mxCell>
        <mxCell id="8OgssNxIvELzxUCm_H0C-8" value="" style="endArrow=none;html=1;rounded=0;entryX=0.086;entryY=0.005;entryDx=0;entryDy=0;entryPerimeter=0;exitX=0.091;exitY=0.995;exitDx=0;exitDy=0;exitPerimeter=0;" parent="1" edge="1">
          <mxGeometry width="50" height="50" relative="1" as="geometry">
            <mxPoint x="148.71200000000016" y="920.2249999999999" as="sourcePoint" />
            <mxPoint x="145.00200000000012" y="172.7750000000001" as="targetPoint" />
          </mxGeometry>
        </mxCell>
        <mxCell id="8OgssNxIvELzxUCm_H0C-10" value="角色" style="text;html=1;align=center;verticalAlign=middle;whiteSpace=wrap;rounded=0;" parent="1" vertex="1">
          <mxGeometry x="56" y="194" width="90" height="65" as="geometry" />
        </mxCell>
        <mxCell id="8OgssNxIvELzxUCm_H0C-11" value="&lt;font style=&quot;font-size: 16px;&quot;&gt;superuser&lt;/font&gt;" style="text;html=1;align=center;verticalAlign=middle;whiteSpace=wrap;rounded=0;" parent="1" vertex="1">
          <mxGeometry x="68" y="343" width="60" height="30" as="geometry" />
        </mxCell>
        <mxCell id="8OgssNxIvELzxUCm_H0C-12" value="" style="endArrow=none;html=1;rounded=0;exitX=0.005;exitY=0.302;exitDx=0;exitDy=0;exitPerimeter=0;" parent="1" edge="1">
          <mxGeometry width="50" height="50" relative="1" as="geometry">
            <mxPoint x="56.000000000000036" y="753.12" as="sourcePoint" />
            <mxPoint x="491.52" y="753" as="targetPoint" />
          </mxGeometry>
        </mxCell>
        <mxCell id="8OgssNxIvELzxUCm_H0C-13" value="&lt;font style=&quot;font-size: 16px;&quot;&gt;staff&lt;/font&gt;" style="text;html=1;align=center;verticalAlign=middle;whiteSpace=wrap;rounded=0;" parent="1" vertex="1">
          <mxGeometry x="64" y="811" width="60" height="30" as="geometry" />
        </mxCell>
        <mxCell id="8OgssNxIvELzxUCm_H0C-16" value="" style="endArrow=none;html=1;rounded=0;entryX=0.344;entryY=0.002;entryDx=0;entryDy=0;entryPerimeter=0;exitX=0.338;exitY=0.995;exitDx=0;exitDy=0;exitPerimeter=0;" parent="1" edge="1">
          <mxGeometry width="50" height="50" relative="1" as="geometry">
            <mxPoint x="494" y="918" as="sourcePoint" />
            <mxPoint x="498" y="169" as="targetPoint" />
          </mxGeometry>
        </mxCell>
        <mxCell id="8OgssNxIvELzxUCm_H0C-17" value="" style="endArrow=none;html=1;rounded=0;entryX=0.344;entryY=0.002;entryDx=0;entryDy=0;entryPerimeter=0;exitX=0.338;exitY=0.995;exitDx=0;exitDy=0;exitPerimeter=0;" parent="1" edge="1">
          <mxGeometry width="50" height="50" relative="1" as="geometry">
            <mxPoint x="659" y="921" as="sourcePoint" />
            <mxPoint x="663" y="172" as="targetPoint" />
          </mxGeometry>
        </mxCell>
        <mxCell id="8OgssNxIvELzxUCm_H0C-23" value="" style="edgeStyle=orthogonalEdgeStyle;rounded=0;orthogonalLoop=1;jettySize=auto;html=1;" parent="1" source="8OgssNxIvELzxUCm_H0C-18" target="8OgssNxIvELzxUCm_H0C-22" edge="1">
          <mxGeometry relative="1" as="geometry" />
        </mxCell>
        <mxCell id="8OgssNxIvELzxUCm_H0C-18" value="&lt;font style=&quot;font-size: 15px;&quot;&gt;create protocols&lt;/font&gt;" style="rounded=1;whiteSpace=wrap;html=1;" parent="1" vertex="1">
          <mxGeometry x="151" y="274" width="120" height="33" as="geometry" />
        </mxCell>
        <mxCell id="8OgssNxIvELzxUCm_H0C-21" value="" style="edgeStyle=orthogonalEdgeStyle;rounded=0;orthogonalLoop=1;jettySize=auto;html=1;" parent="1" source="8OgssNxIvELzxUCm_H0C-19" target="8OgssNxIvELzxUCm_H0C-20" edge="1">
          <mxGeometry relative="1" as="geometry" />
        </mxCell>
        <mxCell id="8OgssNxIvELzxUCm_H0C-19" value="&lt;font style=&quot;font-size: 16px;&quot;&gt;create expt&lt;/font&gt;" style="rounded=1;whiteSpace=wrap;html=1;" parent="1" vertex="1">
          <mxGeometry x="153" y="362" width="120" height="33" as="geometry" />
        </mxCell>
        <mxCell id="8OgssNxIvELzxUCm_H0C-20" value="&lt;font style=&quot;font-size: 16px;&quot;&gt;select protocol&lt;/font&gt;&lt;div&gt;&lt;font style=&quot;font-size: 16px;&quot;&gt;select participants&lt;/font&gt;&lt;/div&gt;&lt;div&gt;&lt;font style=&quot;font-size: 16px;&quot;&gt;select staff&lt;/font&gt;&lt;/div&gt;&lt;div&gt;&lt;font style=&quot;font-size: 16px;&quot;&gt;select&amp;nbsp;time of duration&lt;/font&gt;&lt;/div&gt;" style="whiteSpace=wrap;html=1;rounded=1;" parent="1" vertex="1">
          <mxGeometry x="359" y="347.25" width="120" height="113.75" as="geometry" />
        </mxCell>
        <mxCell id="8OgssNxIvELzxUCm_H0C-22" value="&lt;div&gt;&lt;font style=&quot;font-size: 15px;&quot;&gt;edit protocol name&lt;/font&gt;&lt;/div&gt;&lt;font style=&quot;font-size: 15px;&quot;&gt;manage passive sensor&lt;/font&gt;&lt;div&gt;&lt;font style=&quot;font-size: 15px;&quot;&gt;manage active sensor&lt;/font&gt;&lt;/div&gt;" style="rounded=1;whiteSpace=wrap;html=1;" parent="1" vertex="1">
          <mxGeometry x="351" y="244" width="147" height="85.5" as="geometry" />
        </mxCell>
        <mxCell id="8OgssNxIvELzxUCm_H0C-24" value="authority" style="rounded=1;whiteSpace=wrap;html=1;" parent="1" vertex="1">
          <mxGeometry x="249" y="804" width="120" height="60" as="geometry" />
        </mxCell>
        <mxCell id="8OgssNxIvELzxUCm_H0C-27" value="" style="edgeStyle=orthogonalEdgeStyle;rounded=0;orthogonalLoop=1;jettySize=auto;html=1;" parent="1" source="8OgssNxIvELzxUCm_H0C-25" target="8OgssNxIvELzxUCm_H0C-26" edge="1">
          <mxGeometry relative="1" as="geometry" />
        </mxCell>
        <mxCell id="8OgssNxIvELzxUCm_H0C-25" value="&lt;font style=&quot;font-size: 16px;&quot;&gt;manage staff&lt;/font&gt;" style="rounded=1;whiteSpace=wrap;html=1;" parent="1" vertex="1">
          <mxGeometry x="151" y="435" width="120" height="60" as="geometry" />
        </mxCell>
        <mxCell id="8OgssNxIvELzxUCm_H0C-26" value="&lt;font style=&quot;font-size: 16px;&quot;&gt;add staff&lt;/font&gt;&lt;div&gt;&lt;font style=&quot;font-size: 16px;&quot;&gt;delete staff&lt;/font&gt;&lt;/div&gt;" style="whiteSpace=wrap;html=1;rounded=1;" parent="1" vertex="1">
          <mxGeometry x="350.5" y="473" width="137" height="79" as="geometry" />
        </mxCell>
        <mxCell id="8OgssNxIvELzxUCm_H0C-30" value="" style="edgeStyle=orthogonalEdgeStyle;rounded=0;orthogonalLoop=1;jettySize=auto;html=1;" parent="1" source="8OgssNxIvELzxUCm_H0C-28" target="8OgssNxIvELzxUCm_H0C-29" edge="1">
          <mxGeometry relative="1" as="geometry" />
        </mxCell>
        <mxCell id="8OgssNxIvELzxUCm_H0C-28" value="&lt;font style=&quot;font-size: 16px;&quot;&gt;manage partcipants&lt;/font&gt;" style="rounded=1;whiteSpace=wrap;html=1;" parent="1" vertex="1">
          <mxGeometry x="164" y="624" width="120" height="60" as="geometry" />
        </mxCell>
        <mxCell id="8OgssNxIvELzxUCm_H0C-29" value="&lt;font style=&quot;font-size: 16px;&quot;&gt;add user&lt;/font&gt;&lt;div&gt;&lt;font style=&quot;font-size: 16px;&quot;&gt;delete user&lt;/font&gt;&lt;/div&gt;&lt;div&gt;&lt;font style=&quot;font-size: 16px;&quot;&gt;generate invitation code&lt;/font&gt;&lt;/div&gt;&lt;div&gt;&lt;font style=&quot;font-size: 16px;&quot;&gt;view data&lt;/font&gt;&lt;/div&gt;" style="whiteSpace=wrap;html=1;rounded=1;" parent="1" vertex="1">
          <mxGeometry x="359" y="611" width="136" height="86" as="geometry" />
        </mxCell>
        <mxCell id="8OgssNxIvELzxUCm_H0C-31" value="" style="endArrow=classic;html=1;rounded=0;entryX=0.5;entryY=1;entryDx=0;entryDy=0;" parent="1" source="8OgssNxIvELzxUCm_H0C-24" target="8OgssNxIvELzxUCm_H0C-28" edge="1">
          <mxGeometry width="50" height="50" relative="1" as="geometry">
            <mxPoint x="465" y="539" as="sourcePoint" />
            <mxPoint x="515" y="489" as="targetPoint" />
          </mxGeometry>
        </mxCell>
        <mxCell id="8OgssNxIvELzxUCm_H0C-32" value="&lt;font style=&quot;font-size: 16px;&quot;&gt;specific&lt;/font&gt;" style="text;html=1;align=center;verticalAlign=middle;whiteSpace=wrap;rounded=0;" parent="1" vertex="1">
          <mxGeometry x="258" y="188" width="127" height="56" as="geometry" />
        </mxCell>
        <mxCell id="8OgssNxIvELzxUCm_H0C-33" value="&lt;font style=&quot;font-size: 16px;&quot;&gt;Common&lt;/font&gt;" style="text;html=1;align=center;verticalAlign=middle;whiteSpace=wrap;rounded=0;" parent="1" vertex="1">
          <mxGeometry x="546" y="201" width="60" height="30" as="geometry" />
        </mxCell>
        <mxCell id="8OgssNxIvELzxUCm_H0C-35" value="&lt;font style=&quot;font-size: 16px;&quot;&gt;edit expt&lt;/font&gt;" style="rounded=1;whiteSpace=wrap;html=1;" parent="1" vertex="1">
          <mxGeometry x="151" y="563" width="120" height="33" as="geometry" />
        </mxCell>
        <mxCell id="8OgssNxIvELzxUCm_H0C-36" value="&lt;font style=&quot;font-size: 16px;&quot;&gt;edit protocol&lt;/font&gt;" style="rounded=1;whiteSpace=wrap;html=1;" parent="1" vertex="1">
          <mxGeometry x="364.5" y="565" width="120" height="33" as="geometry" />
        </mxCell>
        <mxCell id="8OgssNxIvELzxUCm_H0C-37" value="" style="endArrow=classic;html=1;rounded=0;entryX=1;entryY=1;entryDx=0;entryDy=0;exitX=0.5;exitY=0;exitDx=0;exitDy=0;" parent="1" source="8OgssNxIvELzxUCm_H0C-24" target="8OgssNxIvELzxUCm_H0C-35" edge="1">
          <mxGeometry width="50" height="50" relative="1" as="geometry">
            <mxPoint x="545" y="902" as="sourcePoint" />
            <mxPoint x="486" y="841" as="targetPoint" />
          </mxGeometry>
        </mxCell>
        <mxCell id="8OgssNxIvELzxUCm_H0C-38" value="" style="endArrow=classic;html=1;rounded=0;entryX=0;entryY=1;entryDx=0;entryDy=0;exitX=0.5;exitY=0;exitDx=0;exitDy=0;" parent="1" source="8OgssNxIvELzxUCm_H0C-24" target="8OgssNxIvELzxUCm_H0C-36" edge="1">
          <mxGeometry width="50" height="50" relative="1" as="geometry">
            <mxPoint x="481" y="889" as="sourcePoint" />
            <mxPoint x="453" y="732" as="targetPoint" />
          </mxGeometry>
        </mxCell>
        <mxCell id="8OgssNxIvELzxUCm_H0C-39" value="&lt;font style=&quot;font-size: 16px;&quot;&gt;explain&lt;/font&gt;" style="text;html=1;align=center;verticalAlign=middle;whiteSpace=wrap;rounded=0;" parent="1" vertex="1">
          <mxGeometry x="702" y="201" width="60" height="30" as="geometry" />
        </mxCell>
        <mxCell id="8OgssNxIvELzxUCm_H0C-40" value="&lt;font style=&quot;font-size: 16px;&quot;&gt;passive data colloct&lt;/font&gt;" style="rounded=1;whiteSpace=wrap;html=1;" parent="1" vertex="1">
          <mxGeometry x="522" y="290" width="120" height="60" as="geometry" />
        </mxCell>
        <mxCell id="8OgssNxIvELzxUCm_H0C-41" value="&lt;font style=&quot;font-size: 16px;&quot;&gt;Active data colloct&lt;/font&gt;" style="rounded=1;whiteSpace=wrap;html=1;" parent="1" vertex="1">
          <mxGeometry x="522" y="386" width="120" height="60" as="geometry" />
        </mxCell>
        <mxCell id="8OgssNxIvELzxUCm_H0C-42" value="&lt;font style=&quot;font-size: 16px;&quot;&gt;&amp;nbsp;data view&lt;/font&gt;" style="rounded=1;whiteSpace=wrap;html=1;" parent="1" vertex="1">
          <mxGeometry x="520" y="492" width="120" height="60" as="geometry" />
        </mxCell>
        <mxCell id="QBgOwM4FYAg6l9_WVEWh-2" value="" style="edgeStyle=orthogonalEdgeStyle;rounded=0;orthogonalLoop=1;jettySize=auto;html=1;" edge="1" parent="1" source="8OgssNxIvELzxUCm_H0C-43" target="QBgOwM4FYAg6l9_WVEWh-1">
          <mxGeometry relative="1" as="geometry" />
        </mxCell>
        <mxCell id="8OgssNxIvELzxUCm_H0C-43" value="&lt;font style=&quot;font-size: 16px;&quot;&gt;practical tool kit&lt;/font&gt;" style="rounded=1;whiteSpace=wrap;html=1;" parent="1" vertex="1">
          <mxGeometry x="522" y="598" width="120" height="60" as="geometry" />
        </mxCell>
        <mxCell id="8OgssNxIvELzxUCm_H0C-45" value="&lt;font style=&quot;font-size: 16px;&quot;&gt;Common include the superuser ,staff and user&lt;/font&gt;" style="text;html=1;align=center;verticalAlign=middle;whiteSpace=wrap;rounded=0;" parent="1" vertex="1">
          <mxGeometry x="702" y="324" width="60" height="337" as="geometry" />
        </mxCell>
        <mxCell id="QBgOwM4FYAg6l9_WVEWh-1" value="&lt;font style=&quot;font-size: 16px;&quot;&gt;Memo&lt;/font&gt;" style="whiteSpace=wrap;html=1;rounded=1;" vertex="1" parent="1">
          <mxGeometry x="495" y="711" width="74" height="60" as="geometry" />
        </mxCell>
        <mxCell id="QBgOwM4FYAg6l9_WVEWh-3" value="" style="endArrow=classic;html=1;rounded=0;entryX=0.5;entryY=0;entryDx=0;entryDy=0;exitX=0.5;exitY=1;exitDx=0;exitDy=0;" edge="1" parent="1" source="8OgssNxIvELzxUCm_H0C-43" target="QBgOwM4FYAg6l9_WVEWh-4">
          <mxGeometry width="50" height="50" relative="1" as="geometry">
            <mxPoint x="582" y="687" as="sourcePoint" />
            <mxPoint x="515" y="602" as="targetPoint" />
          </mxGeometry>
        </mxCell>
        <mxCell id="QBgOwM4FYAg6l9_WVEWh-4" value="Dictionary" style="rounded=1;whiteSpace=wrap;html=1;" vertex="1" parent="1">
          <mxGeometry x="538.5" y="786" width="75" height="60" as="geometry" />
        </mxCell>
        <mxCell id="QBgOwM4FYAg6l9_WVEWh-5" value="&lt;font style=&quot;font-size: 17px;&quot;&gt;recite words&lt;/font&gt;" style="rounded=1;whiteSpace=wrap;html=1;" vertex="1" parent="1">
          <mxGeometry x="590" y="709" width="71" height="60" as="geometry" />
        </mxCell>
        <mxCell id="QBgOwM4FYAg6l9_WVEWh-6" value="" style="endArrow=classic;html=1;rounded=0;exitX=0.5;exitY=1;exitDx=0;exitDy=0;entryX=0.5;entryY=0;entryDx=0;entryDy=0;" edge="1" parent="1" source="8OgssNxIvELzxUCm_H0C-43" target="QBgOwM4FYAg6l9_WVEWh-5">
          <mxGeometry width="50" height="50" relative="1" as="geometry">
            <mxPoint x="465" y="638" as="sourcePoint" />
            <mxPoint x="515" y="588" as="targetPoint" />
          </mxGeometry>
        </mxCell>
      </root>
    </mxGraphModel>
  </diagram>
</mxfile>
